<?xml version="1.0" encoding="utf-8"?>
<!-- Generator: Adobe Illustrator 19.2.1, SVG Export Plug-In . SVG Version: 6.00 Build 0)  -->
<svg version="1.1" id="Layer_1" xmlns="http://www.w3.org/2000/svg" xmlns:xlink="http://www.w3.org/1999/xlink" x="0px" y="0px"
	 viewBox="0 0 358 126" style="enable-background:new 0 0 358 126;" xml:space="preserve">
<style type="text/css">
	.st0{fill:#636466;}
	.st1{fill:#34C1D6;}
	.st2{fill:#FFFFFF;}
</style>
<g>
	<path class="st0" d="M105.714,73.721c0,3.117,0.407,6.068,1.225,8.852c0.816,2.783,2.022,5.196,3.619,7.237
		c1.596,2.043,3.619,3.675,6.068,4.899c2.45,1.226,5.27,1.838,8.463,1.838c4.379,0,8.128-1.151,11.246-3.452
		c3.118-2.3,5.195-5.568,6.236-9.799h7.46c-0.818,2.748-1.893,5.29-3.229,7.628c-1.336,2.338-3.006,4.381-5.01,6.123
		c-2.004,1.746-4.381,3.102-7.126,4.065c-2.747,0.962-5.94,1.447-9.575,1.447c-4.604,0-8.574-0.78-11.914-2.34
		c-3.341-1.558-6.088-3.691-8.24-6.402c-2.154-2.708-3.749-5.902-4.788-9.575c-1.04-3.675-1.559-7.628-1.559-11.858
		c0-4.232,0.613-8.203,1.838-11.915c1.225-3.711,2.968-6.959,5.233-9.744c2.264-2.783,5.029-4.971,8.295-6.569
		c3.266-1.596,6.977-2.395,11.135-2.395c7.942,0,14.177,2.728,18.706,8.185c4.527,5.456,6.754,13.381,6.68,23.773H105.714z
		 M143.35,68.153c0-2.82-0.39-5.473-1.17-7.961c-0.779-2.486-1.931-4.638-3.451-6.459c-1.522-1.818-3.435-3.265-5.735-4.342
		c-2.302-1.074-4.938-1.614-7.905-1.614c-2.97,0-5.587,0.557-7.85,1.671c-2.265,1.112-4.195,2.598-5.79,4.453
		c-1.597,1.858-2.878,4.009-3.842,6.459c-0.965,2.45-1.597,5.049-1.893,7.794H143.35z"/>
	<path class="st0" d="M152.813,43.323h7.238l18.706,49.439l18.705-49.439h7.24l-22.382,57.679h-7.46L152.813,43.323z"/>
	<path class="st0" d="M214.167,73.721c0,3.117,0.407,6.068,1.226,8.852c0.816,2.783,2.021,5.196,3.619,7.237
		c1.594,2.043,3.619,3.675,6.068,4.899c2.45,1.226,5.27,1.838,8.461,1.838c4.379,0,8.129-1.151,11.246-3.452
		c3.118-2.3,5.195-5.568,6.235-9.799h7.461c-0.817,2.748-1.893,5.29-3.229,7.628c-1.337,2.338-3.007,4.381-5.011,6.123
		c-2.004,1.746-4.381,3.102-7.126,4.065c-2.748,0.962-5.94,1.447-9.577,1.447c-4.603,0-8.573-0.78-11.913-2.34
		c-3.34-1.558-6.088-3.691-8.24-6.402c-2.154-2.708-3.75-5.902-4.788-9.575c-1.04-3.675-1.559-7.628-1.559-11.858
		c0-4.232,0.612-8.203,1.836-11.915c1.226-3.711,2.968-6.959,5.234-9.744c2.263-2.783,5.028-4.971,8.295-6.569
		c3.265-1.596,6.977-2.395,11.135-2.395c7.943,0,14.178,2.728,18.707,8.185c4.526,5.456,6.754,13.381,6.68,23.773H214.167z
		 M251.803,68.153c0-2.82-0.39-5.473-1.169-7.961c-0.78-2.486-1.931-4.638-3.452-6.459c-1.522-1.818-3.435-3.265-5.735-4.342
		c-2.301-1.074-4.938-1.614-7.906-1.614c-2.97,0-5.586,0.557-7.849,1.671c-2.266,1.112-4.196,2.598-5.79,4.453
		c-1.597,1.858-2.878,4.009-3.842,6.459c-0.965,2.45-1.597,5.049-1.893,7.794H251.803z"/>
	<path class="st0" d="M274.072,101.002h-6.68V43.323h6.68v8.018c2.672-2.82,5.436-5.123,8.295-6.904
		c2.857-1.781,6.292-2.673,10.301-2.673c3.562,0,6.864,0.614,9.909,1.838c3.043,1.226,5.605,3.36,7.684,6.402
		c1.409,2.079,2.243,4.214,2.505,6.403c0.259,2.19,0.39,4.473,0.39,6.847v37.748h-6.682V63.366c0-5.195-1.151-9.092-3.452-11.692
		c-2.301-2.598-6.123-3.897-11.468-3.897c-2.079,0-3.972,0.317-5.678,0.947c-1.709,0.63-3.248,1.466-4.621,2.505
		c-1.376,1.04-2.545,2.226-3.509,3.564c-0.965,1.336-1.708,2.747-2.226,4.231c-0.669,1.856-1.077,3.639-1.226,5.345
		c-0.148,1.709-0.222,3.564-0.222,5.568V101.002z"/>
	<path class="st0" d="M345,101.224c-0.817,0.148-1.893,0.407-3.229,0.78c-1.337,0.37-2.823,0.557-4.454,0.557
		c-3.34,0-5.885-0.835-7.628-2.506c-1.746-1.669-2.616-4.658-2.616-8.963v-42.2h-8.129v-5.568h8.129V27.289h6.68v16.034h10.801
		v5.568h-10.801V88.42c0,1.411,0.037,2.635,0.112,3.674c0.073,1.04,0.295,1.893,0.667,2.561c0.372,0.667,0.947,1.152,1.726,1.447
		c0.78,0.297,1.874,0.445,3.285,0.445c0.891,0,1.799-0.073,2.728-0.223c0.927-0.147,1.838-0.334,2.728-0.557V101.224z"/>
</g>
<g>
	<path class="st1" d="M86.526,111.274H16.861c-2.003,0-3.626-1.623-3.626-3.626V16.86c0-2.003,1.623-3.626,3.626-3.626h69.665
		c2.003,0,3.626,1.623,3.626,3.626v90.789C90.152,109.651,88.528,111.274,86.526,111.274z"/>
	<path class="st2" d="M71.182,28.542H32.205c-0.768,0-1.39-0.622-1.39-1.39v-5.04c0-0.768,0.622-1.39,1.39-1.39h38.978
		c0.768,0,1.39,0.622,1.39,1.39v5.04C72.572,27.92,71.95,28.542,71.182,28.542z"/>
</g>
<path class="st2" d="M72.901,42.703c5.679,5.514,8.518,13.625,8.518,24.334c0,10.349-2.503,18.901-7.506,25.654
	c-5.003,6.753-12.768,10.128-23.291,10.128c-8.778,0-15.747-2.985-20.91-8.96c-5.163-5.973-7.743-13.995-7.743-24.065
	c0-10.788,2.72-19.38,8.161-25.774c5.441-6.392,12.749-9.59,21.922-9.59C60.271,34.431,67.221,37.188,72.901,42.703z M66.195,85.403
	c2.63-5.411,3.946-11.435,3.946-18.065c0-5.992-0.95-10.864-2.848-14.621c-3.005-5.911-8.186-8.867-15.541-8.867
	c-6.526,0-11.271,2.516-14.237,7.55c-2.966,5.033-4.449,11.104-4.449,18.214c0,6.833,1.483,12.524,4.449,17.077
	c2.966,4.553,7.672,6.831,14.119,6.831C58.712,93.522,63.565,90.816,66.195,85.403z"/>
<g>
</g>
<g>
</g>
<g>
</g>
<g>
</g>
<g>
</g>
<g>
</g>
</svg>
