<?xml version="1.0" encoding="iso-8859-1"?>
<!-- Generator: Adobe Illustrator 18.1.1, SVG Export Plug-In . SVG Version: 6.00 Build 0)  -->
<svg xmlns="http://www.w3.org/2000/svg" xmlns:xlink="http://www.w3.org/1999/xlink" version="1.1" id="Capa_1" x="0px" y="0px" viewBox="0 0 28.05 28.05" style="enable-background:new 0 0 28.05 28.05;" xml:space="preserve" width="512px" height="512px">
<g>
	<path d="M25.351,0H2.699c-1.25,0-2.265,1-2.265,2.234v23.584c0,1.23,1.015,2.232,2.265,2.232h22.652   c1.25,0,2.265-1.002,2.265-2.232V2.234C27.616,1,26.601,0,25.351,0z M4.055,1.68h19.938c1.104,0,1.996,0.877,1.996,1.965v3.85H2.06   v-3.85C2.06,2.557,2.956,1.68,4.055,1.68z M2.06,24.406V9.67h14.777v16.701H4.055C2.956,26.371,2.06,25.49,2.06,24.406z    M23.993,26.371h-4.902V9.67h6.898v14.736C25.989,25.49,25.097,26.371,23.993,26.371z" fill="#26C6DA"/>
</g>
<g>
</g>
<g>
</g>
<g>
</g>
<g>
</g>
<g>
</g>
<g>
</g>
<g>
</g>
<g>
</g>
<g>
</g>
<g>
</g>
<g>
</g>
<g>
</g>
<g>
</g>
<g>
</g>
<g>
</g>
</svg>
