<?xml version="1.0" encoding="utf-8"?>
<!-- Generator: Adobe Illustrator 21.1.0, SVG Export Plug-In . SVG Version: 6.00 Build 0)  -->
<svg version="1.1" id="Layer_1" xmlns="http://www.w3.org/2000/svg" xmlns:xlink="http://www.w3.org/1999/xlink" x="0px" y="0px"
	 viewBox="0 0 358 126" style="enable-background:new 0 0 358 126;" xml:space="preserve">
<style type="text/css">
	.st0{opacity:0.21;}
	.st1{fill:#636466;}
	.st2{fill:#34C1D6;}
	.st3{fill:#FFFFFF;}
</style>
<g class="st0">
	<path class="st1" d="M105.7,73.7c0,3.1,0.4,6.1,1.2,8.9c0.8,2.8,2,5.2,3.6,7.2c1.6,2,3.6,3.7,6.1,4.9c2.4,1.2,5.3,1.8,8.5,1.8
		c4.4,0,8.1-1.2,11.2-3.5c3.1-2.3,5.2-5.6,6.2-9.8h7.5c-0.8,2.7-1.9,5.3-3.2,7.6s-3,4.4-5,6.1c-2,1.7-4.4,3.1-7.1,4.1
		c-2.7,1-5.9,1.4-9.6,1.4c-4.6,0-8.6-0.8-11.9-2.3c-3.3-1.6-6.1-3.7-8.2-6.4c-2.2-2.7-3.7-5.9-4.8-9.6c-1-3.7-1.6-7.6-1.6-11.9
		c0-4.2,0.6-8.2,1.8-11.9c1.2-3.7,3-7,5.2-9.7c2.3-2.8,5-5,8.3-6.6c3.3-1.6,7-2.4,11.1-2.4c7.9,0,14.2,2.7,18.7,8.2
		c4.5,5.5,6.8,13.4,6.7,23.8L105.7,73.7L105.7,73.7z M143.4,68.2c0-2.8-0.4-5.5-1.2-8c-0.8-2.5-1.9-4.6-3.5-6.5
		c-1.5-1.8-3.4-3.3-5.7-4.3c-2.3-1.1-4.9-1.6-7.9-1.6c-3,0-5.6,0.6-7.8,1.7c-2.3,1.1-4.2,2.6-5.8,4.5c-1.6,1.9-2.9,4-3.8,6.5
		c-1,2.5-1.6,5-1.9,7.8L143.4,68.2L143.4,68.2z"/>
	<path class="st1" d="M152.8,43.3h7.2l18.7,49.4l18.7-49.4h7.2L182.3,101h-7.5L152.8,43.3z"/>
	<path class="st1" d="M214.2,73.7c0,3.1,0.4,6.1,1.2,8.9c0.8,2.8,2,5.2,3.6,7.2c1.6,2,3.6,3.7,6.1,4.9c2.4,1.2,5.3,1.8,8.5,1.8
		c4.4,0,8.1-1.2,11.2-3.5c3.1-2.3,5.2-5.6,6.2-9.8h7.5c-0.8,2.7-1.9,5.3-3.2,7.6c-1.3,2.3-3,4.4-5,6.1c-2,1.7-4.4,3.1-7.1,4.1
		c-2.7,1-5.9,1.4-9.6,1.4c-4.6,0-8.6-0.8-11.9-2.3c-3.3-1.6-6.1-3.7-8.2-6.4c-2.2-2.7-3.8-5.9-4.8-9.6c-1-3.7-1.6-7.6-1.6-11.9
		c0-4.2,0.6-8.2,1.8-11.9c1.2-3.7,3-7,5.2-9.7c2.3-2.8,5-5,8.3-6.6c3.3-1.6,7-2.4,11.1-2.4c7.9,0,14.2,2.7,18.7,8.2
		c4.5,5.5,6.8,13.4,6.7,23.8L214.2,73.7L214.2,73.7z M251.8,68.2c0-2.8-0.4-5.5-1.2-8c-0.8-2.5-1.9-4.6-3.5-6.5
		c-1.5-1.8-3.4-3.3-5.7-4.3c-2.3-1.1-4.9-1.6-7.9-1.6c-3,0-5.6,0.6-7.8,1.7c-2.3,1.1-4.2,2.6-5.8,4.5c-1.6,1.9-2.9,4-3.8,6.5
		c-1,2.5-1.6,5-1.9,7.8L251.8,68.2L251.8,68.2z"/>
	<path class="st1" d="M274.1,101h-6.7V43.3h6.7v8c2.7-2.8,5.4-5.1,8.3-6.9c2.9-1.8,6.3-2.7,10.3-2.7c3.6,0,6.9,0.6,9.9,1.8
		c3,1.2,5.6,3.4,7.7,6.4c1.4,2.1,2.2,4.2,2.5,6.4c0.3,2.2,0.4,4.5,0.4,6.8V101h-6.7V63.4c0-5.2-1.2-9.1-3.5-11.7
		c-2.3-2.6-6.1-3.9-11.5-3.9c-2.1,0-4,0.3-5.7,0.9c-1.7,0.6-3.2,1.5-4.6,2.5c-1.4,1-2.5,2.2-3.5,3.6c-1,1.3-1.7,2.7-2.2,4.2
		c-0.7,1.9-1.1,3.6-1.2,5.3c-0.1,1.7-0.2,3.6-0.2,5.6V101z"/>
	<path class="st1" d="M345,101.2c-0.8,0.1-1.9,0.4-3.2,0.8c-1.3,0.4-2.8,0.6-4.5,0.6c-3.3,0-5.9-0.8-7.6-2.5c-1.7-1.7-2.6-4.7-2.6-9
		V48.9h-8.1v-5.6h8.1v-16h6.7v16h10.8v5.6h-10.8v39.5c0,1.4,0,2.6,0.1,3.7c0.1,1,0.3,1.9,0.7,2.6c0.4,0.7,0.9,1.2,1.7,1.4
		c0.8,0.3,1.9,0.4,3.3,0.4c0.9,0,1.8-0.1,2.7-0.2c0.9-0.1,1.8-0.3,2.7-0.6L345,101.2L345,101.2z"/>
</g>
<g class="st0">
	<path class="st2" d="M86.5,111.3H16.9c-2,0-3.6-1.6-3.6-3.6V16.9c0-2,1.6-3.6,3.6-3.6h69.7c2,0,3.6,1.6,3.6,3.6v90.8
		C90.2,109.7,88.5,111.3,86.5,111.3z"/>
	<path class="st3" d="M71.2,28.5h-39c-0.8,0-1.4-0.6-1.4-1.4v-5c0-0.8,0.6-1.4,1.4-1.4h39c0.8,0,1.4,0.6,1.4,1.4v5
		C72.6,27.9,71.9,28.5,71.2,28.5z"/>
</g>
<path class="st3" d="M72.9,42.7c5.7,5.5,8.5,13.6,8.5,24.3c0,10.3-2.5,18.9-7.5,25.7s-12.8,10.1-23.3,10.1c-8.8,0-15.7-3-20.9-9
	c-5.2-6-7.7-14-7.7-24.1C22,59,24.7,50.4,30.1,44c5.4-6.4,12.7-9.6,21.9-9.6C60.3,34.4,67.2,37.2,72.9,42.7z M66.2,85.4
	c2.6-5.4,3.9-11.4,3.9-18.1c0-6-0.9-10.9-2.8-14.6c-3-5.9-8.2-8.9-15.5-8.9c-6.5,0-11.3,2.5-14.2,7.5c-3,5-4.4,11.1-4.4,18.2
	c0,6.8,1.5,12.5,4.4,17.1c3,4.6,7.7,6.8,14.1,6.8C58.7,93.5,63.6,90.8,66.2,85.4z"/>
</svg>
