<?xml version="1.0" encoding="iso-8859-1"?>
<!-- Generator: Adobe Illustrator 18.1.1, SVG Export Plug-In . SVG Version: 6.00 Build 0)  -->
<svg xmlns="http://www.w3.org/2000/svg" xmlns:xlink="http://www.w3.org/1999/xlink" version="1.1" id="Capa_1" x="0px" y="0px" viewBox="0 0 94.003 94.003" style="enable-background:new 0 0 94.003 94.003;" xml:space="preserve" width="512px" height="512px">
<g>
	<path d="M21.531,54.713L39.29,72.472l32.583-32.583L54.115,22.13L21.531,54.713z M92.524,30.323   l-7.556-7.557c-1.439,0.784-3.088,1.231-4.841,1.231c-5.591,0-10.123-4.532-10.123-10.122c0-1.753,0.448-3.402,1.232-4.841   l-7.557-7.557c-1.969-1.969-5.188-1.969-7.157,0L1.478,56.524c-1.968,1.968-1.968,5.188,0,7.156l7.558,7.557   c1.438-0.784,3.088-1.23,4.841-1.23c5.591,0,10.122,4.53,10.122,10.121c0,1.753-0.447,3.402-1.232,4.842l7.557,7.557   c1.969,1.968,5.189,1.968,7.158,0l55.044-55.046C94.493,35.512,94.493,32.292,92.524,30.323z M39.29,80.595L13.41,54.713   l40.707-40.705l25.879,25.881L39.29,80.595z" fill="#26C6DA"/>
</g>
<g>
</g>
<g>
</g>
<g>
</g>
<g>
</g>
<g>
</g>
<g>
</g>
<g>
</g>
<g>
</g>
<g>
</g>
<g>
</g>
<g>
</g>
<g>
</g>
<g>
</g>
<g>
</g>
<g>
</g>
</svg>
